<svg xmlns="http://www.w3.org/2000/svg" viewBox="38 18 138 184" fill="none" role="img" aria-label="Logo">
  <polygon points="170,24 44,80 170,136 170,146 44,90 170,34" fill="#e23b2f"/>
  <polygon points="170,34 44,90 170,146 170,156 44,100 170,44" fill="#46a63a"/>
  <polygon points="170,44 44,100 170,156 170,166 44,110 170,54" fill="#2f80d6"/>
  <polygon points="170,54 44,110 170,166 170,176 44,120 170,64" fill="#2c6f6f"/>
  <polygon points="170,64 44,120 170,176 170,186 44,130 170,74" fill="#3a6b39"/>
  <polygon points="170,74 44,130 170,186 170,196 44,140 170,84" fill="#7c4a3d"/>
</svg>
